<?xml version="1.0" encoding="UTF-8" standalone="no"?><!-- Generator: Gravit.io --><svg xmlns="http://www.w3.org/2000/svg" xmlns:xlink="http://www.w3.org/1999/xlink" style="isolation:isolate" viewBox="0 0 216 222" width="216pt" height="222pt"><defs><clipPath id="_clipPath_TIY9uoibAu4iO0z4cTfqT3rK7koY0f5c"><rect width="216" height="222"/></clipPath></defs><g clip-path="url(#_clipPath_TIY9uoibAu4iO0z4cTfqT3rK7koY0f5c)"><line x1="88" y1="7" x2="88" y2="117" vector-effect="non-scaling-stroke" stroke-width="2" stroke="rgb(0,0,0)" stroke-linejoin="miter" stroke-linecap="square" stroke-miterlimit="3"/><path d=" M 95.071 21.142 L 88 7 L 80.929 21.142 Z " fill="rgb(0,0,0)" stroke="none"/><line x1="88" y1="117" x2="14" y2="177" vector-effect="non-scaling-stroke" stroke-width="2" stroke="rgb(0,0,0)" stroke-linejoin="miter" stroke-linecap="square" stroke-miterlimit="3"/><path d=" M 20.532 162.601 L 14 177 L 29.438 173.586 Z " fill="rgb(0,0,0)" stroke="none"/><line x1="88" y1="117" x2="194" y2="117" vector-effect="non-scaling-stroke" stroke-width="2" stroke="rgb(0,0,0)" stroke-linejoin="miter" stroke-linecap="square" stroke-miterlimit="3"/><path d=" M 179.858 124.071 L 194 117 L 179.858 109.929 Z " fill="rgb(0,0,0)" stroke="none"/><g clip-path="url(#_clipPath_tQaY5KsVKqtmOOOlf7Jp2W5zLSAb66FN)"><text transform="matrix(1,0,0,1,7,200.652)" style="font-family:'Open Sans';font-weight:400;font-size:24px;font-style:normal;fill:#000000;stroke:none;">z</text></g><defs><clipPath id="_clipPath_tQaY5KsVKqtmOOOlf7Jp2W5zLSAb66FN"><rect x="0" y="0" width="14" height="32.684" transform="matrix(1,0,0,1,7,175)"/></clipPath></defs><g clip-path="url(#_clipPath_w4XuBla6DdRcKbMcSvDSuquyEFRcD391)"><text transform="matrix(1,0,0,1,186.5,142.652)" style="font-family:'Open Sans';font-weight:400;font-size:24px;font-style:normal;fill:#000000;stroke:none;">x</text></g><defs><clipPath id="_clipPath_w4XuBla6DdRcKbMcSvDSuquyEFRcD391"><rect x="0" y="0" width="15" height="32.684" transform="matrix(1,0,0,1,186.5,117)"/></clipPath></defs><g clip-path="url(#_clipPath_L5Jvxnsei7EDpAYHhmNUi5iwzGuNLtqo)"><text transform="matrix(1,0,0,1,101,23.377)" style="font-family:'Open Sans';font-weight:400;font-size:20px;font-style:normal;fill:#000000;stroke:none;">y</text></g><defs><clipPath id="_clipPath_L5Jvxnsei7EDpAYHhmNUi5iwzGuNLtqo"><rect x="0" y="0" width="13" height="27.236" transform="matrix(1,0,0,1,101,2)"/></clipPath></defs></g></svg>